<?xml version="1.0" encoding="UTF-8"?>
<svg width="900px" height="220px" viewBox="0 0 900 220" xmlns="http://www.w3.org/2000/svg" xmlns:xlink="http://www.w3.org/1999/xlink" version="1.1">
 <!-- Generated by Pixelmator Pro 1.6.4 -->
 <g id="index-svg-white">
  <path id="path" d="M35.151 166.807 L57.83 166.918 120.253 58.256 209.64 207.284 220.748 187.013 120.557 17 Z" fill="#ffffff" fill-opacity="1" stroke="#000000" stroke-width="7.03" stroke-opacity="1" stroke-linejoin="round"/>
  <path id="path-1" d="M-0 187.909 L10.511 207.752 209.5 207.616 120.034 58.244 108.807 77.821 173.589 187.788 Z" fill="#ffffff" fill-opacity="1" stroke="#000000" stroke-width="7.03" stroke-opacity="1" stroke-linejoin="round"/>
  <path id="path-2" d="M95.861 17 L-0 188.068 173.411 188.017 161.136 167.23 34.758 167.248 120.28 17.233 Z" fill="#ffffff" fill-opacity="1" stroke="#000000" stroke-width="7.03" stroke-opacity="1" stroke-linejoin="round"/>
 </g>
 <path id="path-1" d="M423.767 3.578 C423.366 3.978 423.038 48.378 423.004 102.178 422.936 208.878 423.138 205.178 417.437 206.574 414.437 207.272 410.438 204.97 409.44 201.969 409.141 200.869 408.341 199.968 407.741 199.968 406.041 199.967 407.737 206.268 409.836 208.069 411.935 209.771 425.134 211.579 426.935 210.48 427.535 210.081 427.946 192.981 427.965 162.281 427.999 109.381 427.798 111.181 434.901 107.185 439.902 104.288 450.703 102.695 460.503 103.202 467.603 103.606 470.002 104.208 476.3 107.312 494.795 116.523 506.281 138.431 504.666 161.53 503.253 181.429 493.442 198.923 479.637 206.214 476.236 208.112 473.836 208.51 466.936 208.506 459.636 208.501 457.636 208.1 452.638 205.697 444.74 201.792 441.443 197.289 441.448 190.189 441.451 185.489 441.851 184.49 444.253 182.391 446.454 180.493 448.154 179.994 452.554 179.997 457.454 180 457.954 179.8 457.955 177.9 457.957 175.9 457.557 175.8 452.156 176.296 448.956 176.494 444.856 177.492 443.055 178.39 436.353 181.886 434.147 190.485 437.842 198.487 440.239 203.689 443.137 206.291 450.435 209.595 455.634 211.999 457.733 212.4 465.933 212.505 474.433 212.51 476.034 212.212 481.435 209.615 501.842 199.628 513.76 170.436 508.578 143.032 503.395 115.529 482.406 98.016 454.506 97.998 446.606 97.993 435.705 100.086 431.104 102.483 L428.003 103.981 427.835 53.781 C427.563 9.281 427.367 3.48 426.067 3.18 425.167 3.079 424.167 3.178 423.767 3.578 Z" fill="#ffffff" fill-opacity="1" stroke="none"/>
 <path id="path-1-1" d="M270.765 6.57 C270.365 6.97 270.037 50.97 270.003 104.37 269.947 191.67 269.741 201.77 268.34 203.769 266.238 206.868 260.938 206.464 259.34 203.163 257.542 199.562 256.942 199.462 256.94 202.862 256.939 204.962 257.837 206.962 259.437 208.463 261.735 210.765 262.535 210.965 272.435 210.972 284.735 210.979 286.936 209.781 286.84 203.181 286.842 199.781 286.742 199.681 285.841 201.98 285.24 203.28 284.339 204.779 283.639 205.179 280.037 207.476 274.939 204.473 274.942 200.173 274.943 198.173 275.443 197.974 281.743 197.978 292.443 198.084 302.042 199.69 322.439 204.703 338.236 208.714 343.036 209.417 350.936 209.522 361.736 209.529 366.237 207.831 371.741 201.635 382.349 189.542 375.461 170.237 360.261 169.728 356.061 169.525 355.461 169.825 355.46 171.525 355.459 173.025 356.359 173.625 359.658 174.227 365.358 175.131 367.657 176.532 369.954 180.334 373.751 186.436 371.945 195.335 366.042 200.331 359.138 206.127 347.838 206.32 327.941 201.007 309.445 195.995 298.246 193.988 286.246 193.28 L274.947 192.673 274.806 99.573 C274.559 16.473 274.365 6.473 273.066 6.172 272.166 6.071 271.166 6.171 270.765 6.57 Z" fill="#ffffff" fill-opacity="1" stroke="none"/>
 <path id="path-2-1" d="M574.465 7.501 C559.964 10.092 550.861 14.486 542.355 22.98 534.951 30.276 529.745 39.072 526.138 50.47 521.429 64.967 519.921 77.566 519.302 106.466 518.168 160.565 522.452 184.768 535.643 198.976 546.636 210.883 563.333 215.094 586.635 211.909 601.036 209.918 610.34 203.924 615.147 193.527 617.15 189.128 617.451 187.028 617.358 176.528 617.363 168.128 616.866 163.228 615.668 160.027 614.171 155.926 614.171 155.426 615.672 153.827 617.874 151.429 622.474 151.532 624.272 154.033 625.871 156.234 627.171 155.735 626.272 153.234 625.174 150.133 621.676 147.031 619.176 147.029 617.776 147.029 614.976 147.527 612.976 148.126 609.675 149.123 608.575 149.023 604.776 147.22 599.278 144.517 591.279 142.812 586.279 143.208 583.279 143.407 582.478 143.906 582.477 145.506 582.476 147.206 583.376 147.607 589.676 148.211 607.574 150.022 613.969 159.126 612.655 180.525 611.847 193.625 606.942 200.522 595.239 205.114 590.138 207.111 587.638 207.309 573.938 207.401 560.038 207.392 557.838 207.19 552.739 205.187 544.341 201.782 536.646 194.377 532.552 185.574 525.561 170.87 523.474 150.968 524.302 106.969 525.026 69.769 527.335 55.771 535.745 39.876 545.056 21.982 564.963 10.995 588.363 11.01 592.663 11.013 593.063 10.813 593.065 8.513 593.066 6.113 592.766 6.013 587.366 6.109 584.166 6.107 578.366 6.803 574.465 7.501 Z" fill="#ffffff" fill-opacity="1" stroke="none"/>
 <path id="path-3" d="M382.21 52.094 C369.906 58.287 368.695 76.186 380.09 83.693 391.885 91.501 407.39 84.11 408.799 70.011 410.108 55.912 394.914 45.602 382.21 52.094 Z M398.107 56.305 C407.104 62.31 406.996 74.71 397.992 80.804 391.289 85.3 381.191 82.194 377.496 74.391 371.604 61.888 386.612 48.597 398.107 56.305 Z" fill="#ffffff" fill-opacity="1" stroke="none"/>
 <path id="path-4" d="M386.404 61.198 C384.204 62.196 382.001 65.895 382 68.495 381.995 75.595 391.393 79.501 396.396 74.404 403.2 67.708 395.007 57.003 386.404 61.198 Z" fill="#ffffff" fill-opacity="1" stroke="none"/>
 <path id="path-5" d="M669.535 99.698 C643.129 109.181 630.005 146.773 641.084 180.78 645.575 194.383 655.968 205.389 668.065 209.097 674.964 211.301 680.964 211.505 689.465 209.911 703.067 207.419 713.773 197.626 706.875 194.022 704.676 192.82 701.975 194.118 701.974 196.518 701.972 199.218 695.169 203.814 689.268 205.01 676.266 207.702 664.369 204.294 655.974 195.389 646.081 184.883 641.39 170.08 642.302 151.88 643.619 125.481 657.532 104.89 675.633 102.502 686.134 101.108 698.631 106.516 703.126 114.419 705.723 119.021 705.319 125.521 702.015 132.118 695.907 144.015 682.403 149.706 658.203 150.691 648.402 151.084 644.002 151.581 644.302 152.382 644.901 154.182 668.6 154.297 677.102 152.603 691.604 149.512 702.008 142.918 706.514 133.621 713.623 119.026 708.632 105.623 694.135 100.513 686.936 97.909 675.537 97.602 669.535 99.698 Z" fill="#ffffff" fill-opacity="1" stroke="none"/>
 <path id="path-6" d="M377.535 100.192 C376.435 100.791 374.934 101.99 374.333 102.79 372.832 104.689 372.629 109.989 374.029 109.99 374.629 109.99 375.029 109.19 375.03 108.19 375.033 103.09 382.534 101.295 385.932 105.597 388.03 108.199 388.029 109.199 387.997 160.099 L387.964 211.999 390.464 212 392.964 212.002 392.997 160.102 C393.029 109.202 393.03 108.202 395.132 105.603 398.634 101.105 404.133 102.509 406.53 108.511 407.328 110.411 407.328 110.411 407.73 108.711 408.532 105.412 407.034 102.111 404.035 100.509 400.536 98.707 380.736 98.394 377.535 100.192 Z" fill="#ffffff" fill-opacity="1" stroke="none"/>
 <path id="path-7" d="M760.833 103.99 C753.132 105.885 743.729 109.979 742.528 111.978 741.127 114.277 740.028 112.676 740.031 107.976 L740.034 102.976 733.534 102.972 C726.634 102.968 721.733 104.665 720.631 107.464 719.729 110.063 719.927 113.964 721.027 113.964 721.627 113.965 722.027 113.065 722.028 112.065 722.03 109.665 725.631 106.967 728.631 106.969 729.931 106.97 731.831 108.171 732.93 109.572 735.028 112.173 735.027 113.273 734.999 157.173 L734.971 202.073 732.469 204.472 C731.168 205.871 729.167 206.969 727.967 206.969 725.667 206.967 721.97 203.665 721.971 201.465 721.971 200.665 721.572 199.965 720.972 199.964 718.872 199.963 719.968 205.664 722.567 208.065 724.965 210.367 725.765 210.467 737.965 210.475 750.165 210.483 750.965 210.383 753.367 208.085 754.968 206.586 755.969 204.587 755.97 202.787 755.972 199.187 754.672 199.186 753.27 202.985 751.267 208.384 743.067 207.978 740.87 202.377 740.271 200.677 739.982 184.976 740.198 159.677 L740.523 119.777 745.326 115.48 C752.13 109.184 760.631 106.59 773.532 106.498 781.832 106.503 784.331 106.905 788.33 108.707 799.127 113.714 805.922 121.818 810.713 135.621 813.408 143.523 813.508 143.623 813.987 177.024 L814.465 210.524 820.965 210.828 C824.765 210.93 828.465 210.533 829.966 209.734 833.067 208.136 835.469 203.937 834.671 201.537 834.072 200.036 833.572 200.236 831.67 203.135 828.967 207.233 825.367 207.931 821.869 205.129 L819.47 203.227 818.889 173.327 C818.404 150.326 817.909 142.226 816.711 138.025 811.523 120.222 799.531 107.514 784.433 103.505 776.935 101.6 770.335 101.696 760.833 103.99 Z" fill="#ffffff" fill-opacity="1" stroke="none"/>
</svg>
