<?xml version="1.0" standalone="no"?><!DOCTYPE svg PUBLIC "-//W3C//DTD SVG 1.1//EN" "http://www.w3.org/Graphics/SVG/1.1/DTD/svg11.dtd"><svg t="1596009291041" class="icon" viewBox="0 0 1024 1024" version="1.1" xmlns="http://www.w3.org/2000/svg" p-id="1648" xmlns:xlink="http://www.w3.org/1999/xlink" width="200" height="200"><defs><style type="text/css"></style></defs><path d="M448 768a21.333333 21.333333 0 0 1 21.333333 21.333333 21.333333 21.333333 0 0 1-21.333333 21.333334 21.333333 21.333333 0 0 1-21.333333-21.333334 21.333333 21.333333 0 0 1 21.333333-21.333333m128 0a21.333333 21.333333 0 0 1 21.333333 21.333333 21.333333 21.333333 0 0 1-21.333333 21.333334 21.333333 21.333333 0 0 1-21.333333-21.333334 21.333333 21.333333 0 0 1 21.333333-21.333333M426.666667 469.333333a42.666667 42.666667 0 0 1 42.666666 42.666667 42.666667 42.666667 0 0 1-42.666666 42.666667 42.666667 42.666667 0 0 1-42.666667-42.666667 42.666667 42.666667 0 0 1 42.666667-42.666667m170.666666 0a42.666667 42.666667 0 0 1 42.666667 42.666667 42.666667 42.666667 0 0 1-42.666667 42.666667 42.666667 42.666667 0 0 1-42.666666-42.666667 42.666667 42.666667 0 0 1 42.666666-42.666667m170.666667 298.666667c0 94.293333-114.773333 170.666667-256 170.666667s-256-76.373333-256-170.666667c0-38.4 19.2-73.813333 51.2-102.4-32-42.666667-51.2-96-51.2-153.6l5.12-52.053333c-23.04 6.4-50.773333 6.4-73.386667 0-43.52-11.946667-109.226667-61.013333-99.413333-95.146667 9.813333-34.133333 91.306667-40.533333 134.826667-27.733333 25.173333 7.253333 52.053333 25.6 67.84 45.226666l24.32-34.56C289.706667 300.8 298.666667 170.666667 426.666667 128l-3.84 5.973333c-11.946667 18.773333-42.666667 78.08-10.24 142.08a256.853333 256.853333 0 0 1 198.826666 0c32.426667-64 1.706667-123.306667-10.24-142.08L597.333333 128c128 42.666667 136.96 172.8 111.36 219.733333l24.32 34.56c15.786667-19.626667 42.666667-37.973333 67.84-45.226666 43.52-12.8 125.013333-6.4 134.826667 27.733333 9.813333 34.133333-55.893333 83.2-99.413333 95.146667-22.613333 6.4-50.346667 6.4-73.386667 0L768 512c0 57.6-19.2 110.933333-51.2 153.6 32 28.586667 51.2 64 51.2 102.4m-256-85.333333c-94.293333 0-170.666667 38.4-170.666667 85.333333s76.373333 85.333333 170.666667 85.333333 170.666667-38.4 170.666667-85.333333-76.373333-85.333333-170.666667-85.333333m0-85.333334c47.786667 0 92.586667 8.96 130.986667 23.893334 24.746667-29.44 39.68-66.56 39.68-109.226667a170.666667 170.666667 0 0 0-170.666667-170.666667 170.666667 170.666667 0 0 0-170.666667 170.666667c0 42.666667 14.933333 79.786667 39.68 109.226667 38.4-14.933333 83.2-23.893333 130.986667-23.893334m89.173333-463.36z" fill="" p-id="1649"></path></svg>